<mxfile host="Electron" modified="2024-04-11T13:39:36.946Z" agent="Mozilla/5.0 (Windows NT 10.0; Win64; x64) AppleWebKit/537.36 (KHTML, like Gecko) draw.io/24.0.4 Chrome/120.0.6099.109 Electron/28.1.0 Safari/537.36" etag="jUbb2HBpIsK5HXRrQ_qJ" version="24.0.4" type="device">
  <diagram id="23iRSUPoRavnBvh4doch" name="Page-1">
    <mxGraphModel dx="1195" dy="697" grid="1" gridSize="10" guides="1" tooltips="1" connect="1" arrows="1" fold="1" page="1" pageScale="1" pageWidth="827" pageHeight="1169" math="0" shadow="0">
      <root>
        <mxCell id="0" />
        <mxCell id="1" parent="0" />
        <mxCell id="CmZ27Jewp3pv-GusyY_u-1" value="&lt;h1&gt;Encrypt&lt;/h1&gt;" style="text;html=1;align=center;verticalAlign=middle;resizable=0;points=[];autosize=1;strokeColor=none;fillColor=none;" vertex="1" parent="1">
          <mxGeometry x="159" y="110" width="110" height="70" as="geometry" />
        </mxCell>
        <mxCell id="CmZ27Jewp3pv-GusyY_u-2" value="&lt;h2&gt;Begin&lt;/h2&gt;" style="rounded=1;whiteSpace=wrap;html=1;arcSize=50;fillColor=#fff2cc;strokeColor=#d6b656;" vertex="1" parent="1">
          <mxGeometry x="154" y="202" width="120" height="40" as="geometry" />
        </mxCell>
        <mxCell id="CmZ27Jewp3pv-GusyY_u-3" value="String to charArray" style="rounded=1;whiteSpace=wrap;html=1;fillColor=#fff2cc;strokeColor=#d6b656;" vertex="1" parent="1">
          <mxGeometry x="154" y="282" width="120" height="40" as="geometry" />
        </mxCell>
        <mxCell id="CmZ27Jewp3pv-GusyY_u-4" value="charArray has&amp;nbsp;&lt;div&gt;next symbol&lt;/div&gt;" style="strokeWidth=2;html=1;shape=mxgraph.flowchart.loop_limit;whiteSpace=wrap;fillColor=#fff2cc;strokeColor=#d6b656;" vertex="1" parent="1">
          <mxGeometry x="140" y="362" width="150" height="40" as="geometry" />
        </mxCell>
        <mxCell id="CmZ27Jewp3pv-GusyY_u-5" value="charArray hasn&#39;t&lt;div&gt;next symbol&lt;/div&gt;" style="strokeWidth=2;html=1;shape=mxgraph.flowchart.loop_limit;whiteSpace=wrap;flipV=1;fillColor=#fff2cc;strokeColor=#d6b656;" vertex="1" parent="1">
          <mxGeometry x="140" y="762" width="150" height="40" as="geometry" />
        </mxCell>
        <mxCell id="CmZ27Jewp3pv-GusyY_u-6" value="element to int value" style="rounded=1;whiteSpace=wrap;html=1;fillColor=#fff2cc;strokeColor=#d6b656;" vertex="1" parent="1">
          <mxGeometry x="153.5" y="442" width="120" height="40" as="geometry" />
        </mxCell>
        <mxCell id="CmZ27Jewp3pv-GusyY_u-7" value="result pow to first part of public key" style="rounded=1;whiteSpace=wrap;html=1;fillColor=#fff2cc;strokeColor=#d6b656;" vertex="1" parent="1">
          <mxGeometry x="154" y="522" width="120" height="40" as="geometry" />
        </mxCell>
        <mxCell id="CmZ27Jewp3pv-GusyY_u-8" value="result mod to second part of public key" style="rounded=1;whiteSpace=wrap;html=1;fillColor=#fff2cc;strokeColor=#d6b656;" vertex="1" parent="1">
          <mxGeometry x="154" y="602" width="120" height="40" as="geometry" />
        </mxCell>
        <mxCell id="CmZ27Jewp3pv-GusyY_u-9" value="result add to list" style="rounded=1;whiteSpace=wrap;html=1;fillColor=#fff2cc;strokeColor=#d6b656;" vertex="1" parent="1">
          <mxGeometry x="154" y="682" width="120" height="40" as="geometry" />
        </mxCell>
        <mxCell id="CmZ27Jewp3pv-GusyY_u-10" value="&lt;h2&gt;End&lt;/h2&gt;" style="rounded=1;whiteSpace=wrap;html=1;arcSize=50;fillColor=#fff2cc;strokeColor=#d6b656;" vertex="1" parent="1">
          <mxGeometry x="154" y="842" width="120" height="40" as="geometry" />
        </mxCell>
        <mxCell id="CmZ27Jewp3pv-GusyY_u-11" value="" style="endArrow=classic;html=1;rounded=0;exitX=0.5;exitY=1;exitDx=0;exitDy=0;" edge="1" parent="1" source="CmZ27Jewp3pv-GusyY_u-2" target="CmZ27Jewp3pv-GusyY_u-3">
          <mxGeometry width="50" height="50" relative="1" as="geometry">
            <mxPoint x="220" y="472" as="sourcePoint" />
            <mxPoint x="270" y="422" as="targetPoint" />
          </mxGeometry>
        </mxCell>
        <mxCell id="CmZ27Jewp3pv-GusyY_u-12" value="" style="endArrow=classic;html=1;rounded=0;exitX=0.5;exitY=1;exitDx=0;exitDy=0;entryX=0.5;entryY=0;entryDx=0;entryDy=0;entryPerimeter=0;" edge="1" parent="1" source="CmZ27Jewp3pv-GusyY_u-3" target="CmZ27Jewp3pv-GusyY_u-4">
          <mxGeometry width="50" height="50" relative="1" as="geometry">
            <mxPoint x="224" y="252" as="sourcePoint" />
            <mxPoint x="224" y="292" as="targetPoint" />
          </mxGeometry>
        </mxCell>
        <mxCell id="CmZ27Jewp3pv-GusyY_u-13" value="" style="endArrow=classic;html=1;rounded=0;exitX=0.5;exitY=1;exitDx=0;exitDy=0;entryX=0.5;entryY=0;entryDx=0;entryDy=0;exitPerimeter=0;" edge="1" parent="1" source="CmZ27Jewp3pv-GusyY_u-4" target="CmZ27Jewp3pv-GusyY_u-6">
          <mxGeometry width="50" height="50" relative="1" as="geometry">
            <mxPoint x="224" y="332" as="sourcePoint" />
            <mxPoint x="224" y="372" as="targetPoint" />
          </mxGeometry>
        </mxCell>
        <mxCell id="CmZ27Jewp3pv-GusyY_u-14" value="" style="endArrow=classic;html=1;rounded=0;exitX=0.5;exitY=1;exitDx=0;exitDy=0;" edge="1" parent="1" source="CmZ27Jewp3pv-GusyY_u-6" target="CmZ27Jewp3pv-GusyY_u-7">
          <mxGeometry width="50" height="50" relative="1" as="geometry">
            <mxPoint x="224" y="412" as="sourcePoint" />
            <mxPoint x="224" y="452" as="targetPoint" />
          </mxGeometry>
        </mxCell>
        <mxCell id="CmZ27Jewp3pv-GusyY_u-15" value="" style="endArrow=classic;html=1;rounded=0;exitX=0.5;exitY=1;exitDx=0;exitDy=0;" edge="1" parent="1" source="CmZ27Jewp3pv-GusyY_u-7" target="CmZ27Jewp3pv-GusyY_u-8">
          <mxGeometry width="50" height="50" relative="1" as="geometry">
            <mxPoint x="224" y="492" as="sourcePoint" />
            <mxPoint x="224" y="532" as="targetPoint" />
          </mxGeometry>
        </mxCell>
        <mxCell id="CmZ27Jewp3pv-GusyY_u-16" value="" style="endArrow=classic;html=1;rounded=0;exitX=0.5;exitY=1;exitDx=0;exitDy=0;entryX=0.5;entryY=0;entryDx=0;entryDy=0;" edge="1" parent="1" source="CmZ27Jewp3pv-GusyY_u-8" target="CmZ27Jewp3pv-GusyY_u-9">
          <mxGeometry width="50" height="50" relative="1" as="geometry">
            <mxPoint x="224" y="572" as="sourcePoint" />
            <mxPoint x="224" y="612" as="targetPoint" />
          </mxGeometry>
        </mxCell>
        <mxCell id="CmZ27Jewp3pv-GusyY_u-17" value="" style="endArrow=classic;html=1;rounded=0;exitX=0.5;exitY=1;exitDx=0;exitDy=0;entryX=0.5;entryY=1;entryDx=0;entryDy=0;entryPerimeter=0;" edge="1" parent="1" source="CmZ27Jewp3pv-GusyY_u-9" target="CmZ27Jewp3pv-GusyY_u-5">
          <mxGeometry width="50" height="50" relative="1" as="geometry">
            <mxPoint x="224" y="652" as="sourcePoint" />
            <mxPoint x="224" y="692" as="targetPoint" />
          </mxGeometry>
        </mxCell>
        <mxCell id="CmZ27Jewp3pv-GusyY_u-18" value="" style="endArrow=classic;html=1;rounded=0;entryX=0.5;entryY=0;entryDx=0;entryDy=0;" edge="1" parent="1" source="CmZ27Jewp3pv-GusyY_u-5" target="CmZ27Jewp3pv-GusyY_u-10">
          <mxGeometry width="50" height="50" relative="1" as="geometry">
            <mxPoint x="210" y="812" as="sourcePoint" />
            <mxPoint x="225" y="772" as="targetPoint" />
          </mxGeometry>
        </mxCell>
        <mxCell id="CmZ27Jewp3pv-GusyY_u-19" value="&lt;h1&gt;RSA Algorithm&lt;/h1&gt;" style="text;html=1;align=center;verticalAlign=middle;resizable=0;points=[];autosize=1;strokeColor=none;fillColor=none;" vertex="1" parent="1">
          <mxGeometry x="319" y="30" width="190" height="70" as="geometry" />
        </mxCell>
        <mxCell id="CmZ27Jewp3pv-GusyY_u-20" value="&lt;h1&gt;Decrypt&lt;/h1&gt;" style="text;html=1;align=center;verticalAlign=middle;resizable=0;points=[];autosize=1;strokeColor=none;fillColor=none;" vertex="1" parent="1">
          <mxGeometry x="585.5" y="110" width="110" height="70" as="geometry" />
        </mxCell>
        <mxCell id="CmZ27Jewp3pv-GusyY_u-21" value="&lt;h2&gt;Begin&lt;/h2&gt;" style="rounded=1;whiteSpace=wrap;html=1;arcSize=50;fillColor=#fff2cc;strokeColor=#d6b656;" vertex="1" parent="1">
          <mxGeometry x="580.5" y="202" width="120" height="40" as="geometry" />
        </mxCell>
        <mxCell id="CmZ27Jewp3pv-GusyY_u-22" value="init place for recieving&lt;div&gt;decrypted symbols&lt;/div&gt;" style="rounded=1;whiteSpace=wrap;html=1;fillColor=#fff2cc;strokeColor=#d6b656;" vertex="1" parent="1">
          <mxGeometry x="580.5" y="282" width="120" height="40" as="geometry" />
        </mxCell>
        <mxCell id="CmZ27Jewp3pv-GusyY_u-23" value="list has&amp;nbsp;&lt;div&gt;next symbol&lt;/div&gt;" style="strokeWidth=2;html=1;shape=mxgraph.flowchart.loop_limit;whiteSpace=wrap;fillColor=#fff2cc;strokeColor=#d6b656;" vertex="1" parent="1">
          <mxGeometry x="560" y="362" width="160" height="40" as="geometry" />
        </mxCell>
        <mxCell id="CmZ27Jewp3pv-GusyY_u-24" value="list hasn&#39;t&lt;div&gt;next symbol&lt;/div&gt;" style="strokeWidth=2;html=1;shape=mxgraph.flowchart.loop_limit;whiteSpace=wrap;flipV=1;fillColor=#fff2cc;strokeColor=#d6b656;" vertex="1" parent="1">
          <mxGeometry x="560" y="762" width="160" height="40" as="geometry" />
        </mxCell>
        <mxCell id="CmZ27Jewp3pv-GusyY_u-25" value="parse element to int value" style="rounded=1;whiteSpace=wrap;html=1;fillColor=#fff2cc;strokeColor=#d6b656;" vertex="1" parent="1">
          <mxGeometry x="580" y="442" width="120" height="40" as="geometry" />
        </mxCell>
        <mxCell id="CmZ27Jewp3pv-GusyY_u-26" value="result pow to first part of private key" style="rounded=1;whiteSpace=wrap;html=1;fillColor=#fff2cc;strokeColor=#d6b656;" vertex="1" parent="1">
          <mxGeometry x="580.5" y="522" width="120" height="40" as="geometry" />
        </mxCell>
        <mxCell id="CmZ27Jewp3pv-GusyY_u-27" value="result mod to second part of private key" style="rounded=1;whiteSpace=wrap;html=1;fillColor=#fff2cc;strokeColor=#d6b656;" vertex="1" parent="1">
          <mxGeometry x="580.5" y="602" width="120" height="40" as="geometry" />
        </mxCell>
        <mxCell id="CmZ27Jewp3pv-GusyY_u-28" value="result add to to prepared place" style="rounded=1;whiteSpace=wrap;html=1;fillColor=#fff2cc;strokeColor=#d6b656;" vertex="1" parent="1">
          <mxGeometry x="580.5" y="682" width="120" height="40" as="geometry" />
        </mxCell>
        <mxCell id="CmZ27Jewp3pv-GusyY_u-29" value="&lt;h2&gt;End&lt;/h2&gt;" style="rounded=1;whiteSpace=wrap;html=1;arcSize=50;fillColor=#fff2cc;strokeColor=#d6b656;" vertex="1" parent="1">
          <mxGeometry x="580.5" y="842" width="120" height="40" as="geometry" />
        </mxCell>
        <mxCell id="CmZ27Jewp3pv-GusyY_u-30" value="" style="endArrow=classic;html=1;rounded=0;exitX=0.5;exitY=1;exitDx=0;exitDy=0;" edge="1" source="CmZ27Jewp3pv-GusyY_u-21" target="CmZ27Jewp3pv-GusyY_u-22" parent="1">
          <mxGeometry width="50" height="50" relative="1" as="geometry">
            <mxPoint x="646.5" y="472" as="sourcePoint" />
            <mxPoint x="696.5" y="422" as="targetPoint" />
          </mxGeometry>
        </mxCell>
        <mxCell id="CmZ27Jewp3pv-GusyY_u-31" value="" style="endArrow=classic;html=1;rounded=0;exitX=0.5;exitY=1;exitDx=0;exitDy=0;entryX=0.5;entryY=0;entryDx=0;entryDy=0;entryPerimeter=0;" edge="1" source="CmZ27Jewp3pv-GusyY_u-22" target="CmZ27Jewp3pv-GusyY_u-23" parent="1">
          <mxGeometry width="50" height="50" relative="1" as="geometry">
            <mxPoint x="650.5" y="252" as="sourcePoint" />
            <mxPoint x="650.5" y="292" as="targetPoint" />
          </mxGeometry>
        </mxCell>
        <mxCell id="CmZ27Jewp3pv-GusyY_u-32" value="" style="endArrow=classic;html=1;rounded=0;exitX=0.5;exitY=1;exitDx=0;exitDy=0;entryX=0.5;entryY=0;entryDx=0;entryDy=0;exitPerimeter=0;" edge="1" source="CmZ27Jewp3pv-GusyY_u-23" target="CmZ27Jewp3pv-GusyY_u-25" parent="1">
          <mxGeometry width="50" height="50" relative="1" as="geometry">
            <mxPoint x="650.5" y="332" as="sourcePoint" />
            <mxPoint x="650.5" y="372" as="targetPoint" />
          </mxGeometry>
        </mxCell>
        <mxCell id="CmZ27Jewp3pv-GusyY_u-33" value="" style="endArrow=classic;html=1;rounded=0;exitX=0.5;exitY=1;exitDx=0;exitDy=0;" edge="1" source="CmZ27Jewp3pv-GusyY_u-25" target="CmZ27Jewp3pv-GusyY_u-26" parent="1">
          <mxGeometry width="50" height="50" relative="1" as="geometry">
            <mxPoint x="650.5" y="412" as="sourcePoint" />
            <mxPoint x="650.5" y="452" as="targetPoint" />
          </mxGeometry>
        </mxCell>
        <mxCell id="CmZ27Jewp3pv-GusyY_u-34" value="" style="endArrow=classic;html=1;rounded=0;exitX=0.5;exitY=1;exitDx=0;exitDy=0;" edge="1" source="CmZ27Jewp3pv-GusyY_u-26" target="CmZ27Jewp3pv-GusyY_u-27" parent="1">
          <mxGeometry width="50" height="50" relative="1" as="geometry">
            <mxPoint x="650.5" y="492" as="sourcePoint" />
            <mxPoint x="650.5" y="532" as="targetPoint" />
          </mxGeometry>
        </mxCell>
        <mxCell id="CmZ27Jewp3pv-GusyY_u-35" value="" style="endArrow=classic;html=1;rounded=0;exitX=0.5;exitY=1;exitDx=0;exitDy=0;entryX=0.5;entryY=0;entryDx=0;entryDy=0;" edge="1" source="CmZ27Jewp3pv-GusyY_u-27" target="CmZ27Jewp3pv-GusyY_u-28" parent="1">
          <mxGeometry width="50" height="50" relative="1" as="geometry">
            <mxPoint x="650.5" y="572" as="sourcePoint" />
            <mxPoint x="650.5" y="612" as="targetPoint" />
          </mxGeometry>
        </mxCell>
        <mxCell id="CmZ27Jewp3pv-GusyY_u-36" value="" style="endArrow=classic;html=1;rounded=0;exitX=0.5;exitY=1;exitDx=0;exitDy=0;entryX=0.5;entryY=1;entryDx=0;entryDy=0;entryPerimeter=0;" edge="1" source="CmZ27Jewp3pv-GusyY_u-28" target="CmZ27Jewp3pv-GusyY_u-24" parent="1">
          <mxGeometry width="50" height="50" relative="1" as="geometry">
            <mxPoint x="650.5" y="652" as="sourcePoint" />
            <mxPoint x="650.5" y="692" as="targetPoint" />
          </mxGeometry>
        </mxCell>
        <mxCell id="CmZ27Jewp3pv-GusyY_u-37" value="" style="endArrow=classic;html=1;rounded=0;entryX=0.5;entryY=0;entryDx=0;entryDy=0;" edge="1" source="CmZ27Jewp3pv-GusyY_u-24" target="CmZ27Jewp3pv-GusyY_u-29" parent="1">
          <mxGeometry width="50" height="50" relative="1" as="geometry">
            <mxPoint x="636.5" y="812" as="sourcePoint" />
            <mxPoint x="651.5" y="772" as="targetPoint" />
          </mxGeometry>
        </mxCell>
      </root>
    </mxGraphModel>
  </diagram>
</mxfile>
